<svg width="1057" height="1110" viewBox="0 0 1057 1110" fill="none" xmlns="http://www.w3.org/2000/svg">
<path d="M728.084 111.493C617.793 61.2244 477.767 85.6827 349.591 127.284C221.66 169.027 105.333 227.771 76.9286 315.202C48.5242 402.634 108.042 518.753 136.617 649.383C165.192 780.013 163.211 925.051 234.843 998.947C306.423 1072.65 451.564 1075.02 545.624 1015.19C639.439 955.221 774.562 876.34 774.562 725.292C774.562 603.292 907.654 511.617 913.195 399.213C918.737 286.808 838.375 161.761 728.084 111.493Z" fill="#BB004B"/>
<path d="M728.084 111.493C617.793 61.2244 477.767 85.6827 349.591 127.284C221.66 169.027 105.333 227.771 76.9286 315.202C48.5242 402.634 108.042 518.753 136.617 649.383C165.192 780.013 163.211 925.051 234.843 998.947C306.423 1072.65 451.564 1075.02 545.624 1015.19C639.439 955.221 774.562 876.34 774.562 725.292C774.562 603.292 907.654 511.617 913.195 399.213C918.737 286.808 838.375 161.761 728.084 111.493Z" fill="black" fill-opacity="0.2"/>
</svg>
