<?xml version="1.0" encoding="utf-8"?>
<!-- Svg Vector Icons : http://www.onlinewebfonts.com/icon -->
<!DOCTYPE svg PUBLIC "-//W3C//DTD SVG 1.1//EN" "http://www.w3.org/Graphics/SVG/1.1/DTD/svg11.dtd">
<svg version="1.1" xmlns="http://www.w3.org/2000/svg" xmlns:xlink="http://www.w3.org/1999/xlink" x="0px" y="0px" viewBox="0 0 256 256" enable-background="new 0 0 256 256" xml:space="preserve">
<metadata> Svg Vector Icons : http://www.onlinewebfonts.com/icon </metadata>
<g><g><g><path fill="#000000" d="M133.7,24.5c-4.1,6.5-7.1,15.1-9.3,27.3c-1.6,9.3-1.8,26.4-0.3,32.8c5.6,23.7,22.5,41.3,45.6,47.1l5.2,1.3l0.3,14.1l0.3,14.1h9.1h9.1l0.3-14.1l0.3-14.1l5.2-1.3c12.8-3.2,24.4-10.5,32.3-20.2c6.4-7.8,10.9-16.9,13.2-27c1.3-5.6,1.3-23.5-0.1-31c-2.2-12.5-5.3-21.9-9.5-28.4l-2.2-3.4h-48.8h-48.8L133.7,24.5z M223.9,43.8c2.3,7.8,4,18.2,4,24.7v3.9h-43.4h-43.4v-3.9c0.1-6.9,2.5-21.7,4.5-27l0.6-1.5h38.3h38.3L223.9,43.8z"/><path fill="#000000" d="M61.9,128.9C48.5,132.1,37.7,145,37,158.7l-0.2,2.6l49.6,0.2l49.6,0.1l-0.3-2.8c-0.7-5.9-4.5-11.2-10.2-14.3c-3.2-1.8-4-1.9-8.4-2c-4,0-5.3,0.2-8,1.5c-1.8,0.9-4.2,2.4-5.5,3.5l-2.2,2l-1.9-3.8c-4-7.8-12.6-14.5-21.4-16.8C74,127.8,66.4,127.8,61.9,128.9z"/><path fill="#000000" d="M21.3,175.3c-0.4,0.4-0.7,1.1-0.7,1.5c0,0.5,3.7,7.8,8.2,16.2l8.2,15.3h91h91l8.1-15.3c4.5-8.5,8.2-15.7,8.2-16.2c0-0.5-0.3-1.1-0.7-1.5C233.7,174.3,22.3,174.3,21.3,175.3z"/><path fill="#000000" d="M15,217.3c-3.5,1.8-5.2,4.9-4.9,8.6c0.3,3.1,1.5,5.2,4.4,7l1.9,1.3H128h111.7l1.9-1.3c2.7-1.8,4.1-3.9,4.4-6.7c0.3-3.6-1.6-7.2-4.9-8.9l-2.5-1.3H128H17.5L15,217.3z"/></g></g></g>
</svg>